<?xml version="1.0" encoding="UTF-8" standalone="no"?>
<!DOCTYPE svg PUBLIC "-//W3C//DTD SVG 1.1//EN" "http://www.w3.org/Graphics/SVG/1.1/DTD/svg11.dtd">
<svg width="100%" height="100%" viewBox="0 0 1200 1200" version="1.1" xmlns="http://www.w3.org/2000/svg" xmlns:xlink="http://www.w3.org/1999/xlink" xml:space="preserve" xmlns:serif="http://www.serif.com/" style="fill-rule:evenodd;clip-rule:evenodd;stroke-linejoin:round;stroke-miterlimit:2;">
    <g transform="matrix(15.1641,0,0,4.29119,-4204.48,-2414.29)">
        <path d="M311.807,794.8C311.185,796.401 309.939,792.6 309.939,788.2C309.939,786.6 310.024,785.4 310.194,784.6C311.665,778.2 313.25,769.75 314.948,759.25C316.646,748.75 318.514,735.5 320.551,719.5C324.626,687.3 326.663,663.9 326.663,649.3C326.663,627.7 323.041,616.9 315.797,616.9C312.345,616.9 308.411,619.6 303.997,625C301.45,628 298.974,631.6 296.568,635.8C294.163,640 291.715,645.2 289.225,651.4C282.943,666.6 279.802,681.2 279.802,695.2C279.802,706.6 281.98,712.3 286.338,712.3C288.546,712.3 291.687,710.3 295.762,706.3C295.988,706.1 296.172,705.95 296.314,705.85C296.455,705.75 296.554,705.7 296.611,705.7C297.063,705.7 297.29,706.3 297.29,707.5C297.29,710.9 295.818,713.8 292.875,716.2C291.743,717 290.696,717.7 289.734,718.3C288.772,718.9 287.895,719.2 287.102,719.2C280.764,719.2 277.594,710.4 277.594,692.8C277.594,676.4 280.82,660.3 287.272,644.5C292.253,632.5 297.573,623.4 303.233,617.2C307.873,612.2 312.231,609.7 316.306,609.7C325.645,609.7 330.314,622.7 330.314,648.7C330.314,667.1 328.248,690 324.117,717.4C325.758,710.6 327.413,703.55 329.083,696.25C330.753,688.95 332.323,682.3 333.795,676.3C336.172,666.9 338.322,659.9 340.247,655.3C342.171,650.7 343.841,648.4 345.255,648.4C349.387,648.4 351.453,655.4 351.453,669.4C351.453,681.4 349.811,700 346.529,725.2C343.246,750.4 341.605,766.8 341.605,774.4C341.605,780.4 342.397,783.4 343.982,783.4C344.831,783.4 345.935,781.7 347.293,778.3C348.708,774.9 349.5,773.2 349.67,773.2C349.896,773.2 350.01,773.7 350.01,774.7C350.01,778.7 349.246,782.2 347.717,785.2C346.133,788.2 344.718,789.7 343.473,789.7C340.473,789.7 338.973,784.1 338.973,772.9C338.973,764.7 339.822,753.7 341.52,739.9L344.746,713.8C345.369,708.8 345.906,704.05 346.359,699.55C346.812,695.05 347.18,690.8 347.463,686.8C348.142,678.6 348.481,672.2 348.481,667.6C348.481,660.6 347.774,657.1 346.359,657.1C345.567,657.1 344.689,657.9 343.727,659.5C341.69,662.7 339.369,668.65 336.766,677.35C334.163,686.05 331.361,697.1 328.361,710.5C326.098,720.5 323.919,730.75 321.824,741.25C319.73,751.75 317.778,762.6 315.967,773.8C315.571,776.2 315.019,779.25 314.311,782.95C313.604,786.65 312.536,792.925 311.807,794.8Z" style="fill-rule:nonzero;"/>
    </g>
</svg>
